<!-- default-dark.svg -->
<svg width="260" height="60" viewBox="0 0 260 60" fill="none" xmlns="http://www.w3.org/2000/svg">

  <defs>
    <linearGradient id="dnsGradientDark" x1="0%" y1="0%" x2="100%" y2="100%">
      <stop offset="0%" stop-color="#FF3CAC"/>
      <stop offset="100%" stop-color="#784BA0"/>
    </linearGradient>
  </defs>

  <!-- Shield -->
  <path
    d="M30 5L50 12V28C50 40 42 49 30 55C18 49 10 40 10 28V12L30 5Z"
    fill="url(#dnsGradientDark)"
  />

  <!-- Orbit -->
  <circle
    cx="30"
    cy="30"
    r="15"
    stroke="white"
    stroke-width="2.5"
    fill="none"
    stroke-dasharray="68 28"
    transform="rotate(-20 30 30)"
  />

  <!-- Globe -->
  <circle
    cx="30"
    cy="30"
    r="9"
    stroke="white"
    stroke-width="2"
    fill="none"
  />

  <!-- Globe Horizontal -->
  <path
    d="M21 30H39"
    stroke="white"
    stroke-width="2"
    fill="none"
  />

  <path
    d="M23 25C26 27 34 27 37 25"
    stroke="white"
    stroke-width="1.5"
    fill="none"
  />

  <path
    d="M23 35C26 33 34 33 37 35"
    stroke="white"
    stroke-width="1.5"
    fill="none"
  />

  <!-- Globe Vertical -->
  <path
    d="M30 21C27 24 27 36 30 39"
    stroke="white"
    stroke-width="1.5"
    fill="none"
  />

  <path
    d="M30 21C33 24 33 36 30 39"
    stroke="white"
    stroke-width="1.5"
    fill="none"
  />

  <!-- Nodes -->
  <circle cx="17" cy="18" r="3" fill="white"/>
  <circle cx="43" cy="18" r="3" fill="white"/>
  <circle cx="40" cy="42" r="3" fill="white"/>

  <!-- Connections -->
  <path
    d="M19 20L24 24"
    stroke="white"
    stroke-width="2"
    fill="none"
  />

  <path
    d="M41 20L36 24"
    stroke="white"
    stroke-width="2"
    fill="none"
  />

  <path
    d="M38 39L35 36"
    stroke="white"
    stroke-width="2"
    fill="none"
  />

  <!-- DNS -->
  <text
    x="70"
    y="34"
    font-size="30"
    font-family="Arial, sans-serif"
    font-weight="700"
    fill="white"
  >
    DNS
  </text>

  <!-- Subtitle -->
  <text
    x="70"
    y="51"
    font-size="14"
    font-family="Arial, sans-serif"
    fill="#E1E3EA"
  >
    Management System
  </text>

</svg>